<svg width="1375" height="324" viewBox="0 0 1375 324" fill="none" xmlns="http://www.w3.org/2000/svg">
<rect width="1375" height="324" fill="white"/>
<path d="M36.6943 153.71C31.9092 153.71 27.5879 153.075 23.7305 151.806C19.873 150.585 16.5527 148.803 13.7695 146.459C10.9375 144.115 8.76465 141.332 7.25098 138.109C5.78613 134.887 5.05371 131.322 5.05371 127.416C5.05371 124.145 5.56641 121.068 6.5918 118.188C7.66602 115.258 9.15527 112.719 11.0596 110.57C12.9639 108.422 15.1855 106.762 17.7246 105.59C20.2637 104.369 22.9492 103.759 25.7812 103.759C29.2969 103.759 32.251 104.638 34.6436 106.396C37.0361 108.153 38.5254 110.57 39.1113 113.646C33.8867 113.646 29.7363 115.038 26.6602 117.821C25.1953 119.14 24.0479 120.751 23.2178 122.655C22.4365 124.56 22.0459 126.659 22.0459 128.954C22.0459 133.349 23.3154 136.84 25.8545 139.428C28.4424 141.967 31.9092 143.236 36.2549 143.236C38.8428 143.236 41.2598 142.772 43.5059 141.845C45.752 140.868 47.7051 139.55 49.3652 137.89C51.0254 136.229 52.2949 134.252 53.1738 131.957C54.1016 129.613 54.5654 127.123 54.5654 124.486C54.5654 119.604 52.9053 114.525 49.585 109.252C48.2666 107.201 46.8018 105.199 45.1904 103.246C43.6279 101.244 41.4307 98.6074 38.5986 95.3359C36.0596 92.4062 33.9355 89.8672 32.2266 87.7188C30.5176 85.5703 28.9795 83.373 27.6123 81.127C24.292 75.707 22.6318 70.3848 22.6318 65.1602C22.6318 61.2539 23.4619 57.6406 25.1221 54.3203C26.7822 50.9512 29.1504 48.0215 32.2266 45.5312C35.3027 43.041 38.8916 41.1123 42.9932 39.7451C47.0947 38.3779 51.5137 37.6943 56.25 37.6943C64.3066 37.6943 70.7764 39.5986 75.6592 43.4072C78.0029 45.2627 79.7852 47.4844 81.0059 50.0723C82.2754 52.6602 82.9102 55.541 82.9102 58.7148C82.9102 62.8652 81.8604 66.2588 79.7607 68.8955C78.7842 70.165 77.5635 71.1416 76.0986 71.8252C74.6826 72.5088 73.1689 72.8506 71.5576 72.8506C67.7979 72.8506 64.7461 71.2881 62.4023 68.1631C64.3066 66.7959 65.7959 64.9893 66.8701 62.7432C67.9932 60.4482 68.5547 58.0068 68.5547 55.4189C68.5547 52.1963 67.6025 49.6572 65.6982 47.8018C63.7939 45.8975 61.1816 44.9453 57.8613 44.9453C55.8594 44.9453 54.0039 45.3115 52.2949 46.0439C50.6348 46.7764 49.2188 47.8262 48.0469 49.1934C46.8262 50.5605 45.874 52.1719 45.1904 54.0273C44.5557 55.8828 44.2383 57.9092 44.2383 60.1064C44.2383 63.2314 44.9707 66.2344 46.4355 69.1152C47.9004 71.9961 50 74.999 52.7344 78.124C55.1758 81.0049 57.8125 83.8613 60.6445 86.6934C67.2363 93.5293 71.8994 100.194 74.6338 106.688C76.2451 110.546 77.0508 114.794 77.0508 119.433C77.0508 124.315 76.0498 128.856 74.0479 133.056C72.0459 137.206 69.1895 140.819 65.4785 143.896C61.7676 147.021 57.4463 149.438 52.5146 151.146C47.583 152.855 42.3096 153.71 36.6943 153.71ZM92.915 151.879C88.1299 151.879 84.3457 150.463 81.5625 147.631C78.4375 144.506 76.875 139.94 76.875 133.935C76.875 131.103 77.2656 127.831 78.0469 124.12L88.2275 76H109.834L99.0674 126.977C98.7744 128.49 98.6279 129.906 98.6279 131.225C98.6279 135.326 100.117 137.377 103.096 137.377C105.83 137.377 108.296 136.132 110.493 133.642C112.251 131.542 113.789 128.368 115.107 124.12L125.288 76H146.895L136.128 126.977C135.688 128.441 135.469 130.053 135.469 131.811C135.469 133.861 135.957 135.302 136.934 136.132C137.91 136.962 139.473 137.377 141.621 137.377C144.404 137.377 146.895 136.132 149.092 133.642C151.045 131.444 152.607 128.271 153.779 124.12H160.078C157.393 131.737 154.146 137.768 150.337 142.211C147.114 145.873 143.477 148.51 139.424 150.121C136.445 151.293 133.296 151.879 129.976 151.879C125.679 151.879 122.261 150.683 119.722 148.29C117.183 145.897 115.645 142.357 115.107 137.67C111.689 143.139 107.832 147.045 103.535 149.389C100.459 151.049 96.9189 151.879 92.915 151.879ZM163.345 151.879C159.731 151.879 156.533 151.342 153.75 150.268C150.967 149.145 148.623 147.606 146.719 145.653C144.961 143.847 143.643 141.845 142.764 139.647C141.885 137.401 141.445 135.082 141.445 132.689C141.445 129.418 142.275 126.464 143.936 123.827C145.4 121.483 147.231 119.799 149.429 118.773C153.335 111.84 156.729 104.809 159.609 97.6797C162.49 90.5508 165.249 82.7627 167.886 74.3154L190.078 71.3857C190.664 84.0811 191.201 93.8223 191.689 100.609C192.178 107.592 192.593 112.719 192.935 115.99C193.228 119.799 193.374 123.119 193.374 125.951C193.374 128.49 193.179 130.395 192.788 131.664C197.28 129.027 200.869 126.513 203.555 124.12H209.854C206.289 128.271 202.603 131.835 198.794 134.813C195.034 137.792 191.079 140.478 186.929 142.87C183.95 145.995 180.215 148.314 175.723 149.828C171.816 151.195 167.69 151.879 163.345 151.879ZM158.584 140.014C162.344 140.014 165.347 138.988 167.593 136.938C170.278 134.496 171.621 130.883 171.621 126.098C171.621 124.096 171.499 121.581 171.255 118.554L170.889 114.086C170.449 110.229 170.01 105.761 169.57 100.683L168.765 90.5752C167.349 95.1162 165.664 99.6328 163.711 104.125C161.758 108.568 159.39 113.5 156.606 118.92C158.901 120.189 160.049 121.923 160.049 124.12C160.049 126.073 159.463 127.758 158.291 129.174C157.021 130.736 155.41 131.518 153.457 131.518C152.48 131.518 151.65 131.396 150.967 131.151C150.332 130.858 149.819 130.321 149.429 129.54C149.429 133.153 150.137 135.814 151.553 137.523C152.969 139.184 155.312 140.014 158.584 140.014ZM250.181 151.879C243.979 151.879 239.39 150.121 236.411 146.605C233.823 143.578 232.529 139.696 232.529 134.96C232.529 132.714 232.798 130.102 233.335 127.123C233.921 124.145 234.775 120.312 235.898 115.624C237.021 110.839 237.852 107.03 238.389 104.198C238.975 101.317 239.268 98.8271 239.268 96.7275C239.268 91.6006 237.461 89.0371 233.848 89.0371C231.309 89.0371 228.965 90.3799 226.816 93.0654C225.01 95.3604 223.447 98.6318 222.129 102.88L211.948 151H190.342L212.095 48.9736L234.287 45.9707L226.23 83.7637C229.16 80.4922 232.31 78.1973 235.679 76.8789C238.169 75.9023 240.854 75.4141 243.735 75.4141C248.813 75.4141 252.817 76.7324 255.747 79.3691C258.872 82.25 260.435 86.5713 260.435 92.333C260.435 95.7998 259.8 100.316 258.53 105.883C258.188 107.494 257.627 109.911 256.846 113.134C255.43 118.554 254.404 122.875 253.77 126.098C253.379 128.148 253.184 129.809 253.184 131.078C253.184 133.08 253.623 134.643 254.502 135.766C255.43 136.84 256.992 137.377 259.189 137.377C262.168 137.377 264.683 136.156 266.733 133.715C268.296 131.859 269.98 128.661 271.787 124.12H278.086C274.375 135.106 269.688 142.797 264.023 147.191C260.02 150.316 255.405 151.879 250.181 151.879ZM289.336 67.8701C287.725 67.8701 286.187 67.5771 284.722 66.9912C283.257 66.3564 281.987 65.502 280.913 64.4277C279.839 63.4023 278.984 62.1572 278.35 60.6924C277.764 59.2275 277.471 57.6895 277.471 56.0781C277.471 54.4668 277.764 52.9287 278.35 51.4639C278.984 49.999 279.839 48.7051 280.913 47.582C281.987 46.459 283.257 45.6045 284.722 45.0186C286.187 44.3838 287.725 44.0664 289.336 44.0664C290.947 44.0664 292.485 44.3838 293.95 45.0186C295.415 45.6045 296.709 46.459 297.832 47.582C298.955 48.7051 299.81 49.999 300.396 51.4639C301.03 52.9287 301.348 54.4668 301.348 56.0781C301.348 57.6895 301.03 59.2275 300.396 60.6924C299.81 62.1572 298.955 63.4023 297.832 64.4277C296.709 65.502 295.415 66.3564 293.95 66.9912C292.485 67.5771 290.947 67.8701 289.336 67.8701ZM279.155 151.879C274.37 151.879 270.586 150.463 267.803 147.631C264.678 144.506 263.115 139.94 263.115 133.935C263.115 131.103 263.506 127.831 264.287 124.12L274.468 76H296.074L285.308 126.977C284.917 128.246 284.722 129.857 284.722 131.811C284.722 133.861 285.186 135.302 286.113 136.132C287.09 136.962 288.652 137.377 290.801 137.377C292.266 137.377 293.682 137.06 295.049 136.425C296.465 135.741 297.759 134.813 298.931 133.642C301.323 131.249 303.13 128.075 304.351 124.12H310.649C307.964 131.688 304.595 137.719 300.542 142.211C297.124 145.873 293.267 148.51 288.97 150.121C285.845 151.293 282.573 151.879 279.155 151.879ZM357.612 153.417C351.948 153.417 347.09 152.733 343.037 151.366C338.984 150.048 335.615 147.948 332.93 145.067C330.195 142.138 328.145 138.329 326.777 133.642C325.459 128.905 324.8 123.192 324.8 116.503C324.8 108.935 325.679 101.049 327.437 92.8457C329.487 83.3242 332.417 74.8037 336.226 67.2842C340.669 58.5439 346.064 51.7324 352.412 46.8496C359.639 41.2832 367.891 38.5 377.168 38.5C384.639 38.5 390.571 40.0625 394.966 43.1875C399.8 46.6055 402.217 51.7324 402.217 58.5684C402.217 62.8652 401.436 66.1611 399.873 68.4561C398.018 71.0928 395.283 72.4111 391.67 72.4111C390.156 72.4111 388.667 72.1426 387.202 71.6055C385.786 71.0684 384.443 70.043 383.174 68.5293C384.053 68.0898 384.907 67.4062 385.737 66.4785C386.567 65.502 387.3 64.3789 387.935 63.1094C389.351 60.2773 390.059 57.4697 390.059 54.6865C390.059 52.001 389.375 49.877 388.008 48.3145C386.396 46.459 384.028 45.5312 380.903 45.5312C378.218 45.5312 375.557 46.5322 372.92 48.5342C370.332 50.4873 367.842 53.2705 365.449 56.8838C363.154 60.3506 361.03 64.4033 359.077 69.042C357.124 73.6807 355.464 78.6123 354.097 83.8369C352.729 89.1104 351.655 94.4814 350.874 99.9502C350.093 105.419 349.702 110.644 349.702 115.624C349.702 119.335 349.971 122.582 350.508 125.365C351.094 128.148 352.021 130.517 353.291 132.47C356.074 136.815 360.884 138.988 367.72 138.988C373.579 138.988 379.023 137.694 384.053 135.106C389.082 132.47 393.379 128.759 396.943 123.974L400.386 125.512C398.481 130.297 395.845 134.496 392.476 138.109C389.155 141.674 385.396 144.628 381.196 146.972C377.339 149.12 373.359 150.731 369.258 151.806C365.156 152.88 361.274 153.417 357.612 153.417ZM410.903 151.586C403.481 151.586 397.744 149.779 393.691 146.166C389.15 142.162 386.88 136.083 386.88 127.929C386.88 124.853 387.197 121.459 387.832 117.748C388.467 113.988 389.443 110.204 390.762 106.396C393.789 97.3135 398.11 90.0625 403.726 84.6426C410.513 78.002 418.594 74.6816 427.969 74.6816C440.811 74.6816 447.231 82.665 447.231 98.6318V98.7783C447.524 98.876 447.769 98.9248 447.964 98.9248H448.843C452.163 98.9248 456.094 97.9971 460.635 96.1416C464.639 94.4814 468.423 92.4062 471.987 89.916L473.306 94.0176C470.376 97.0938 466.592 99.7061 461.953 101.854C457.363 104.003 452.285 105.541 446.719 106.469C446.133 113.256 444.814 119.457 442.764 125.072C440.713 130.639 438.076 135.424 434.854 139.428C431.68 143.334 428.042 146.337 423.94 148.437C419.839 150.536 415.493 151.586 410.903 151.586ZM416.909 138.109C418.667 138.109 420.449 137.328 422.256 135.766C424.111 134.154 425.845 131.933 427.456 129.101C429.067 126.269 430.459 122.948 431.631 119.14C432.803 115.331 433.682 111.254 434.268 106.908C432.803 106.518 431.753 105.785 431.118 104.711C430.532 103.637 430.239 102.27 430.239 100.609C430.239 98.5586 430.654 96.8496 431.484 95.4824C432.314 94.1152 433.462 93.1143 434.927 92.4795C434.731 89.3057 434.219 87.0352 433.389 85.668C432.949 84.9844 432.388 84.4961 431.704 84.2031C431.069 83.9102 430.239 83.7637 429.214 83.7637C425.845 83.7637 422.549 86.3027 419.326 91.3809C416.348 95.9707 413.906 101.635 412.002 108.373C410.146 114.965 409.219 120.824 409.219 125.951C409.219 128.441 409.341 130.468 409.585 132.03C409.878 133.593 410.342 134.813 410.977 135.692C411.562 136.571 412.319 137.206 413.247 137.597C414.175 137.938 415.396 138.109 416.909 138.109ZM538.608 151.879C532.407 151.879 527.817 150.121 524.839 146.605C522.251 143.578 520.957 139.696 520.957 134.96C520.957 132.714 521.226 130.102 521.763 127.123C522.349 124.145 523.203 120.312 524.326 115.624C525.449 110.839 526.279 107.03 526.816 104.198C527.402 101.317 527.695 98.8271 527.695 96.7275C527.695 91.6006 525.889 89.0371 522.275 89.0371C519.736 89.0371 517.393 90.3799 515.244 93.0654C513.438 95.3604 511.875 98.6318 510.557 102.88L500.376 151H478.77L489.756 99.2178C490.049 98.0459 490.195 96.8008 490.195 95.4824C490.195 93.4805 489.878 91.9424 489.243 90.8682C488.413 89.5498 487.217 88.8906 485.654 88.8906C482.822 88.8906 480.356 90.2578 478.257 92.9922C476.401 95.3359 474.814 98.6318 473.496 102.88L463.315 151H441.709L457.603 76H479.209L477.598 83.7637C480.527 80.4922 483.726 78.1729 487.192 76.8057C489.927 75.7803 492.832 75.2676 495.908 75.2676C500.107 75.2676 503.452 76.2441 505.942 78.1973C508.726 80.3945 510.508 83.7148 511.289 88.1582C514.512 83.1777 518.223 79.6621 522.422 77.6113C525.4 76.1465 528.647 75.4141 532.163 75.4141C537.192 75.4141 541.172 76.7324 544.102 79.3691C547.227 82.25 548.789 86.5713 548.789 92.333C548.789 95.6045 548.179 100.121 546.958 105.883C546.47 108.275 545.884 110.692 545.2 113.134C543.979 117.821 542.979 122.143 542.197 126.098C541.807 128.148 541.611 129.809 541.611 131.078C541.611 133.08 542.051 134.643 542.93 135.766C543.857 136.84 545.42 137.377 547.617 137.377C550.596 137.377 553.11 136.156 555.161 133.715C556.724 131.859 558.408 128.661 560.215 124.12H566.514C562.803 135.106 558.115 142.797 552.451 147.191C548.447 150.316 543.833 151.879 538.608 151.879ZM643.901 151.879C637.7 151.879 633.11 150.121 630.132 146.605C627.544 143.578 626.25 139.696 626.25 134.96C626.25 132.714 626.519 130.102 627.056 127.123C627.642 124.145 628.496 120.312 629.619 115.624C630.742 110.839 631.572 107.03 632.109 104.198C632.695 101.317 632.988 98.8271 632.988 96.7275C632.988 91.6006 631.182 89.0371 627.568 89.0371C625.029 89.0371 622.686 90.3799 620.537 93.0654C618.73 95.3604 617.168 98.6318 615.85 102.88L605.669 151H584.062L595.049 99.2178C595.342 98.0459 595.488 96.8008 595.488 95.4824C595.488 93.4805 595.171 91.9424 594.536 90.8682C593.706 89.5498 592.51 88.8906 590.947 88.8906C588.115 88.8906 585.649 90.2578 583.55 92.9922C581.694 95.3359 580.107 98.6318 578.789 102.88L568.608 151H547.002L562.896 76H584.502L582.891 83.7637C585.82 80.4922 589.019 78.1729 592.485 76.8057C595.22 75.7803 598.125 75.2676 601.201 75.2676C605.4 75.2676 608.745 76.2441 611.235 78.1973C614.019 80.3945 615.801 83.7148 616.582 88.1582C619.805 83.1777 623.516 79.6621 627.715 77.6113C630.693 76.1465 633.94 75.4141 637.456 75.4141C642.485 75.4141 646.465 76.7324 649.395 79.3691C652.52 82.25 654.082 86.5713 654.082 92.333C654.082 95.6045 653.472 100.121 652.251 105.883C651.763 108.275 651.177 110.692 650.493 113.134C649.272 117.821 648.271 122.143 647.49 126.098C647.1 128.148 646.904 129.809 646.904 131.078C646.904 133.08 647.344 134.643 648.223 135.766C649.15 136.84 650.713 137.377 652.91 137.377C655.889 137.377 658.403 136.156 660.454 133.715C662.017 131.859 663.701 128.661 665.508 124.12H671.807C668.096 135.106 663.408 142.797 657.744 147.191C653.74 150.316 649.126 151.879 643.901 151.879ZM679.468 151.879C672.095 151.879 666.406 150.023 662.402 146.312C658.154 142.357 656.03 136.278 656.03 128.075C656.03 124.999 656.348 121.581 656.982 117.821C657.568 114.062 658.472 110.302 659.692 106.542C661.06 102.343 662.793 98.3633 664.893 94.6035C667.041 90.8438 669.531 87.5234 672.363 84.6426C678.906 78.002 686.963 74.6816 696.533 74.6816C702.637 74.6816 707.08 76.1465 709.863 79.0762C712.012 81.3711 713.086 84.6914 713.086 89.0371C713.086 93.2852 712.158 97.2891 710.303 101.049C708.447 104.76 705.884 108.056 702.612 110.937C699.341 113.769 695.63 116.039 691.479 117.748C687.329 119.408 683.032 120.385 678.589 120.678C678.345 123.217 678.223 125.219 678.223 126.684C678.223 131.566 679.15 134.936 681.006 136.791C682.617 138.451 685.303 139.281 689.062 139.281C694.482 139.281 699.438 137.816 703.931 134.887C705.835 133.666 707.666 132.226 709.424 130.565C711.182 128.856 713.232 126.708 715.576 124.12H720.703C715.967 132.128 710.522 138.5 704.37 143.236C696.802 148.998 688.501 151.879 679.468 151.879ZM679.761 113.5C682.544 113.305 685.254 112.499 687.891 111.083C690.527 109.667 692.871 107.812 694.922 105.517C696.973 103.173 698.584 100.561 699.756 97.6797C700.928 94.75 701.514 91.7715 701.514 88.7441C701.514 86.7422 701.221 85.2285 700.635 84.2031C700.098 83.1289 699.146 82.5918 697.778 82.5918C695.972 82.5918 694.141 83.4707 692.285 85.2285C690.479 86.9863 688.721 89.4033 687.012 92.4795C685.449 95.3604 684.033 98.6318 682.764 102.294C681.494 105.956 680.493 109.691 679.761 113.5ZM718.257 76H739.863L737.959 85.3018C741.377 82.2744 744.16 80.126 746.309 78.8564C749.629 76.9521 752.876 76 756.05 76C759.272 76 761.86 77.1475 763.813 79.4424C764.692 80.4678 765.352 81.6641 765.791 83.0312C766.23 84.3496 766.45 85.7656 766.45 87.2793C766.45 88.6465 766.23 89.9648 765.791 91.2344C765.352 92.5039 764.692 93.6514 763.813 94.6768C762.837 95.751 761.641 96.6055 760.225 97.2402C758.857 97.875 757.319 98.1924 755.61 98.1924C754.292 98.1924 753.242 97.9727 752.461 97.5332C751.68 97.0938 751.069 96.459 750.63 95.6289C750.239 94.7988 749.971 93.9932 749.824 93.2119C749.385 91.1123 748.945 89.7207 748.506 89.0371C748.164 88.5488 747.627 88.3047 746.895 88.3047C744.795 88.3047 743.013 88.7441 741.548 89.623C740.083 90.502 738.228 91.9668 735.981 94.0176L723.97 151H702.363L718.257 76ZM778.433 151.879C771.06 151.879 765.371 150.023 761.367 146.312C757.119 142.357 754.995 136.278 754.995 128.075C754.995 124.999 755.312 121.581 755.947 117.821C756.533 114.013 757.461 110.229 758.73 106.469C761.709 97.3379 765.933 90.0625 771.401 84.6426C778.14 78.002 786.123 74.6816 795.352 74.6816C801.357 74.6816 805.801 76.1221 808.682 79.0029C810.928 81.2979 812.051 84.4473 812.051 88.4512C812.051 91.9668 811.27 94.7012 809.707 96.6543C808.242 98.4609 806.362 99.3643 804.067 99.3643C802.407 99.3643 800.649 98.7783 798.794 97.6064C800.015 94.4326 800.625 91.4785 800.625 88.7441C800.625 86.8398 800.259 85.3506 799.526 84.2764C798.843 83.1533 797.817 82.5918 796.45 82.5918C793.521 82.5918 790.469 85.1797 787.295 90.3555C784.414 94.9453 782.021 100.78 780.117 107.86C778.164 114.794 777.188 121.068 777.188 126.684C777.188 131.566 778.115 134.936 779.971 136.791C781.582 138.451 784.268 139.281 788.027 139.281C793.447 139.281 798.403 137.816 802.896 134.887C804.8 133.666 806.631 132.226 808.389 130.565C810.146 128.856 812.197 126.708 814.541 124.12H819.668C814.932 132.128 809.487 138.5 803.335 143.236C795.767 148.998 787.466 151.879 778.433 151.879ZM828.501 151.879C821.128 151.879 815.439 150.023 811.436 146.312C807.188 142.357 805.063 136.278 805.063 128.075C805.063 124.999 805.381 121.581 806.016 117.821C806.602 114.062 807.505 110.302 808.726 106.542C810.093 102.343 811.826 98.3633 813.926 94.6035C816.074 90.8438 818.564 87.5234 821.396 84.6426C827.939 78.002 835.996 74.6816 845.566 74.6816C851.67 74.6816 856.113 76.1465 858.896 79.0762C861.045 81.3711 862.119 84.6914 862.119 89.0371C862.119 93.2852 861.191 97.2891 859.336 101.049C857.48 104.76 854.917 108.056 851.646 110.937C848.374 113.769 844.663 116.039 840.513 117.748C836.362 119.408 832.065 120.385 827.622 120.678C827.378 123.217 827.256 125.219 827.256 126.684C827.256 131.566 828.184 134.936 830.039 136.791C831.65 138.451 834.336 139.281 838.096 139.281C843.516 139.281 848.472 137.816 852.964 134.887C854.868 133.666 856.699 132.226 858.457 130.565C860.215 128.856 862.266 126.708 864.609 124.12H869.736C865 132.128 859.556 138.5 853.403 143.236C845.835 148.998 837.534 151.879 828.501 151.879ZM828.794 113.5C831.577 113.305 834.287 112.499 836.924 111.083C839.561 109.667 841.904 107.812 843.955 105.517C846.006 103.173 847.617 100.561 848.789 97.6797C849.961 94.75 850.547 91.7715 850.547 88.7441C850.547 86.7422 850.254 85.2285 849.668 84.2031C849.131 83.1289 848.179 82.5918 846.812 82.5918C845.005 82.5918 843.174 83.4707 841.318 85.2285C839.512 86.9863 837.754 89.4033 836.045 92.4795C834.482 95.3604 833.066 98.6318 831.797 102.294C830.527 105.956 829.526 109.691 828.794 113.5Z" transform="translate(376 68)" fill="#1F7343"/>
<path d="M2.5 10.0956C2.5 7.31035 4.74393 5.04511 7.52905 5.01879L263.723 2.59717C268.001 2.55673 271.491 6.01376 271.491 10.2923C271.491 14.5754 267.994 18.0343 263.711 17.9872L7.52124 15.1723C4.7392 15.1418 2.5 12.8778 2.5 10.0956Z" transform="translate(94.1865 194.494) rotate(-30)" fill="#F5CE85" stroke="#967A44" stroke-width="5"/>
<path d="M105 31.122C105 37.1225 100.652 43.5578 91.4285 48.7769C82.356 53.9106 69.4869 57.2439 55 57.2439C40.5131 57.2439 27.644 53.9106 18.5715 48.7769C9.34819 43.5578 5 37.1225 5 31.122C5 25.1214 9.34819 18.6861 18.5715 13.467C27.644 8.33335 40.5131 5 55 5C69.4869 5 82.356 8.33335 91.4285 13.467C100.652 18.6861 105 25.1214 105 31.122Z" transform="translate(112.86 191.261)" fill="#C1CFE0" stroke="#66798F" stroke-width="10"/>
<path d="M5 5H105V66.9024H5V5Z" transform="translate(112.86 151.554)" fill="#C1CFE0" stroke="#66798F" stroke-width="10"/>
<path d="M105 31.122C105 37.1225 100.652 43.5578 91.4285 48.7769C82.356 53.9105 69.4869 57.2439 55 57.2439C40.5131 57.2439 27.644 53.9105 18.5715 48.7769C9.34819 43.5578 5 37.1225 5 31.122C5 25.1214 9.34819 18.6861 18.5715 13.467C27.644 8.33335 40.5131 5 55 5C69.4869 5 82.356 8.33335 91.4285 13.467C100.652 18.6861 105 25.1214 105 31.122Z" transform="translate(112.86 121.505)" fill="white" stroke="#66798F" stroke-width="10"/>
<path d="M105 31.122C105 37.1225 100.652 43.5578 91.4285 48.7769C82.356 53.9105 69.4869 57.2439 55 57.2439C40.5131 57.2439 27.644 53.9105 18.5715 48.7769C9.34819 43.5578 5 37.1225 5 31.122C5 25.1214 9.34819 18.6861 18.5715 13.467C27.644 8.33335 40.5131 5 55 5C69.4869 5 82.356 8.33335 91.4285 13.467C100.652 18.6861 105 25.1214 105 31.122Z" transform="translate(112.86 121.505)" fill="#AFB7BC" stroke="#66798F" stroke-width="10"/>
<rect x="5" y="5" width="93.9186" height="59.2624" transform="translate(115.946 152.622)" fill="#4F4F4F" stroke="#66798F" stroke-width="10"/>
<path d="M98.5 29C98.5 36.2488 93.4225 43.0931 84.6028 48.2085C75.8214 53.3018 63.5907 56.5 50 56.5C36.4093 56.5 24.1787 53.3018 15.3972 48.2085C6.57749 43.0931 1.5 36.2488 1.5 29C1.5 21.7512 6.57749 14.9069 15.3972 9.79145C24.1787 4.69823 36.4093 1.5 50 1.5C63.5907 1.5 75.8214 4.69823 84.6028 9.79145C93.4225 14.9069 98.5 21.7512 98.5 29Z" transform="translate(117.86 190.505)" fill="#C1CFE0" stroke="#C1CFE0" stroke-width="3"/>
<path d="M1.5 1.5H98.5V65.5H1.5V1.5Z" transform="translate(117.86 153.505)" fill="#C1CFE0" stroke="#C1CFE0" stroke-width="3"/>
<path d="M100 29C100 45.0163 77.6142 58 50 58C22.3858 58 0 45.0163 0 29C0 12.9837 22.3858 0 50 0C77.6142 0 100 12.9837 100 29Z" transform="translate(117.86 125.505)" fill="white"/>
<path d="M100 29C100 45.0163 77.6142 58 50 58C22.3858 58 0 45.0163 0 29C0 12.9837 22.3858 0 50 0C77.6142 0 100 12.9837 100 29Z" transform="translate(117.86 125.505)" stroke="#AFB7BC"/>
<ellipse cx="17.2414" cy="10" rx="17.2414" ry="10" transform="translate(150.86 143.505)" fill="#F78F8F"/>
<path d="M2.5 10.0956C2.5 7.31035 4.74393 5.04511 7.52905 5.01879L263.723 2.59717C268.001 2.55673 271.491 6.01376 271.491 10.2923C271.491 14.5754 267.994 18.0343 263.711 17.9872L7.52124 15.1723C4.7392 15.1418 2.5 12.8778 2.5 10.0956Z" transform="translate(98.1362 232.509) rotate(-25)" fill="#F5CE85" stroke="#967A44" stroke-width="5"/>
</svg>
