<svg width="1164" height="1172" viewBox="0 0 1164 1172" fill="none" xmlns="http://www.w3.org/2000/svg">
<path d="M7.52905 5.01879L263.723 2.59717C268.001 2.55673 271.491 6.01376 271.491 10.2923C271.491 14.5754 267.994 18.0343 263.711 17.9872L7.52124 15.1723C4.7392 15.1418 2.5 12.8778 2.5 10.0956C2.5 7.31035 4.74393 5.04511 7.52905 5.01879Z" transform="translate(84.7461 753.977) scale(4) rotate(-30)" fill="#F5CE85" stroke="#967A44" stroke-width="5"/>
<path d="M105 31.122C105 37.1225 100.652 43.5578 91.4285 48.7769C82.356 53.9106 69.4869 57.2439 55 57.2439C40.5131 57.2439 27.644 53.9106 18.5715 48.7769C9.34819 43.5578 5 37.1225 5 31.122C5 25.1214 9.34819 18.6861 18.5715 13.467C27.644 8.33335 40.5131 5 55 5C69.4869 5 82.356 8.33335 91.4285 13.467C100.652 18.6861 105 25.1214 105 31.122Z" transform="translate(159.439 741.043) scale(4)" fill="#C1CFE0" stroke="#66798F" stroke-width="10"/>
<path d="M5 5H105V66.9024H5V5Z" transform="translate(159.439 582.215) scale(4)" fill="#C1CFE0" stroke="#66798F" stroke-width="10"/>
<path d="M105 31.122C105 37.1225 100.652 43.5578 91.4285 48.7769C82.356 53.9105 69.4869 57.2439 55 57.2439C40.5131 57.2439 27.644 53.9105 18.5715 48.7769C9.34819 43.5578 5 37.1225 5 31.122C5 25.1214 9.34819 18.6861 18.5715 13.467C27.644 8.33335 40.5131 5 55 5C69.4869 5 82.356 8.33335 91.4285 13.467C100.652 18.6861 105 25.1214 105 31.122Z" transform="translate(159.439 462.02) scale(4)" fill="white" stroke="#66798F" stroke-width="10"/>
<path d="M105 31.122C105 37.1225 100.652 43.5578 91.4285 48.7769C82.356 53.9105 69.4869 57.2439 55 57.2439C40.5131 57.2439 27.644 53.9105 18.5715 48.7769C9.34819 43.5578 5 37.1225 5 31.122C5 25.1214 9.34819 18.6861 18.5715 13.467C27.644 8.33335 40.5131 5 55 5C69.4869 5 82.356 8.33335 91.4285 13.467C100.652 18.6861 105 25.1214 105 31.122Z" transform="translate(159.439 462.02) scale(4)" fill="#AFB7BC" stroke="#66798F" stroke-width="10"/>
<rect x="5" y="5" width="93.9186" height="59.2624" transform="translate(171.785 586.488) scale(4)" fill="#4F4F4F" stroke="#66798F" stroke-width="10"/>
<path d="M98.5 29C98.5 36.2488 93.4225 43.0931 84.6028 48.2085C75.8214 53.3018 63.5907 56.5 50 56.5C36.4093 56.5 24.1786 53.3018 15.3972 48.2085C6.57749 43.0931 1.5 36.2488 1.5 29C1.5 21.7512 6.57749 14.9069 15.3972 9.79145C24.1786 4.69823 36.4093 1.5 50 1.5C63.5907 1.5 75.8214 4.69823 84.6028 9.79145C93.4225 14.9069 98.5 21.7512 98.5 29Z" transform="translate(179.439 738.02) scale(4)" fill="#C1CFE0" stroke="#C1CFE0" stroke-width="3"/>
<path d="M1.5 1.5H98.5V65.5H1.5V1.5Z" transform="translate(179.439 590.02) scale(4)" fill="#C1CFE0" stroke="#C1CFE0" stroke-width="3"/>
<path d="M100 29C100 45.0163 77.6142 58 50 58C22.3858 58 0 45.0163 0 29C0 12.9837 22.3858 0 50 0C77.6142 0 100 12.9837 100 29Z" transform="translate(179.439 478.02) scale(4)" fill="white"/>
<path d="M100 29C100 45.0163 77.6142 58 50 58C22.3858 58 0 45.0163 0 29C0 12.9837 22.3858 0 50 0C77.6142 0 100 12.9837 100 29Z" transform="translate(179.439 478.02) scale(4)" stroke="#AFB7BC"/>
<ellipse cx="17.2414" cy="10" rx="17.2414" ry="10" transform="translate(311.439 550.02) scale(4)" fill="#F78F8F"/>
<path d="M7.52905 5.01879L263.723 2.59717C268.001 2.55673 271.491 6.01376 271.491 10.2923C271.491 14.5754 267.994 18.0343 263.711 17.9872L7.52124 15.1723C4.7392 15.1418 2.5 12.8778 2.5 10.0956C2.5 7.31035 4.74393 5.04511 7.52905 5.01879Z" transform="translate(100.545 906.035) scale(4) rotate(-25)" fill="#F5CE85" stroke="#967A44" stroke-width="5"/>
</svg>